<svg xmlns="http://www.w3.org/2000/svg" viewBox="0 0 197.89 161.72"><defs><style>.cls-1{fill:#1c4577;}.cls-2{fill:#0069ae;}.cls-3,.cls-5,.cls-6{fill:#0068ad;}.cls-4{font-size:30.6px;font-family:Montserrat-Regular, Montserrat;}.cls-4,.cls-9{fill:#1d4577;letter-spacing:0.02em;}.cls-5,.cls-8{letter-spacing:0.03em;}.cls-6{letter-spacing:0.03em;}.cls-7{letter-spacing:-0.02em;}</style></defs><title>Asset 2</title><g id="Layer_2" data-name="Layer 2"><g id="Layer_1-2" data-name="Layer 1"><path class="cls-1" d="M114.56,80.11H61.29a2.4,2.4,0,0,1-2.4-2.4V2.4A2.4,2.4,0,0,1,61.29,0H136.6A2.4,2.4,0,0,1,139,2.4V34.93h-4.8V4.8H63.69v70.5h50.86Z"/><path class="cls-2" d="M136.6,80.11H119v-4.8H134.2V39.4H139v38.3A2.4,2.4,0,0,1,136.6,80.11Z"/><path class="cls-3" d="M120.19,40.56v18.3a31.17,31.17,0,0,1-18.74,6.63c-14.63,0-26.3-11.31-26.3-25.51S86.9,14.62,101.74,14.62a28.56,28.56,0,0,1,18.59,6.92L117,25.86A23.19,23.19,0,0,0,101.74,20C90.21,20,81,28.88,81,40s9.3,20,20.83,20a24.12,24.12,0,0,0,13.26-4.25V40.56Z"/><path class="cls-3" d="M101.45,66.09c-15.09,0-26.9-11.47-26.9-26.11s11.94-26,27.19-26a29.06,29.06,0,0,1,19,7.07l.42.37-4.05,5.28-.48-.43a22.6,22.6,0,0,0-14.88-5.68c-11.11,0-20.15,8.69-20.15,19.36s9.07,19.43,20.23,19.43a23.47,23.47,0,0,0,12.66-4V40h6.32V59.15l-.23.18A31.69,31.69,0,0,1,101.45,66.09Zm.29-50.88c-14.58,0-26,10.88-26,24.77S87,64.89,101.45,64.89a30.46,30.46,0,0,0,18.14-6.32V41.16h-3.92V56.08l-.26.18a24.73,24.73,0,0,1-13.6,4.36C90,60.62,80.39,51.36,80.39,40S90,19.42,101.74,19.42A23.83,23.83,0,0,1,116.93,25l2.58-3.37A27.9,27.9,0,0,0,101.74,15.22Z"/><text class="cls-4" transform="translate(28.52 117.31)">THE <tspan class="cls-5" x="72.95" y="0">GILL</tspan><tspan class="cls-6"><tspan x="-28.52" y="36.72">L</tspan><tspan class="cls-7" x="-11.23" y="36.72">A</tspan><tspan class="cls-8" x="10.62" y="36.72">W </tspan><tspan class="cls-9" x="51.74" y="36.72">GROUP</tspan></tspan></text></g></g></svg>