<svg xmlns="http://www.w3.org/2000/svg" viewBox="0 0 39.41 39.4"><defs><style>.cls-1{fill:#1c4577;}.cls-2{fill:#0069ae;}.cls-3{fill:#fff;}</style></defs><title>Asset 4</title><g id="Layer_2" data-name="Layer 2"><g id="Layer_1-2" data-name="Layer 1"><rect class="cls-1" x="1" y="1" width="37.41" height="37.4" rx="2.27" ry="2.27"/><path class="cls-2" d="M36.13,2a1.27,1.27,0,0,1,1.27,1.27V36.13a1.27,1.27,0,0,1-1.27,1.27H3.27A1.27,1.27,0,0,1,2,36.13V3.27A1.27,1.27,0,0,1,3.27,2H36.13m0-2H3.27A3.27,3.27,0,0,0,0,3.27V36.13A3.27,3.27,0,0,0,3.27,39.4H36.13a3.27,3.27,0,0,0,3.27-3.27V3.27A3.27,3.27,0,0,0,36.13,0Z"/><path class="cls-3" d="M30.69,20v9a15.33,15.33,0,0,1-9.22,3.26A12.68,12.68,0,0,1,8.54,19.67c0-7,5.78-12.48,13.08-12.48a14,14,0,0,1,9.15,3.4l-1.63,2.13a11.41,11.41,0,0,0-7.52-2.87,10,10,0,0,0-10.21,9.82,10,10,0,0,0,10.24,9.85,11.87,11.87,0,0,0,6.52-2.09V20Z"/><path class="cls-3" d="M21.47,32.51A12.9,12.9,0,0,1,8.24,19.67c0-7.16,5.88-12.77,13.38-12.77A14.3,14.3,0,0,1,31,10.37l.21.18-2,2.6-.24-.21a11.11,11.11,0,0,0-7.32-2.8,9.74,9.74,0,0,0-9.91,9.52,9.77,9.77,0,0,0,9.95,9.56,11.54,11.54,0,0,0,6.23-2V19.66H31V29.1l-.11.09A15.59,15.59,0,0,1,21.47,32.51Zm.14-25c-7.17,0-12.79,5.35-12.79,12.18A12.32,12.32,0,0,0,21.47,31.92a15,15,0,0,0,8.92-3.11V20.25H28.47v7.34l-.13.09a12.16,12.16,0,0,1-6.69,2.14A10.36,10.36,0,0,1,11.11,19.67,10.33,10.33,0,0,1,21.62,9.55a11.72,11.72,0,0,1,7.47,2.74l1.27-1.66A13.72,13.72,0,0,0,21.62,7.48Z"/></g></g></svg>