<svg xmlns="http://www.w3.org/2000/svg" viewBox="0 0 444.52 239.76"><defs><style>.cls-1{opacity:0.85;}.cls-2{fill:#0068ad;}.cls-3{fill:#fff;}.cls-4{fill:#1d4577;}</style></defs><title>Asset 6</title><g id="Layer_2" data-name="Layer 2"><g id="content"><g class="cls-1"><circle class="cls-2" cx="324.64" cy="119.88" r="119.88"/></g><path class="cls-3" d="M326.78,60v8.57h-5.35V60a2.69,2.69,0,0,1,2.75-2.48,2.73,2.73,0,0,1,2.6,2.48Zm0,20.53V182h-5.35V80.51Z"/><path class="cls-3" d="M324.11,65.87A8.66,8.66,0,1,1,318,68.41,8.63,8.63,0,0,1,324.11,65.87Z"/><path class="cls-3" d="M276.54,77.21a2.68,2.68,0,1,1,0-5.35h41.59a2.68,2.68,0,0,1,0,5.35Zm53.54,0a2.68,2.68,0,0,1,0-5.35h41.59a2.68,2.68,0,0,1,0,5.35Z"/><path class="cls-3" d="M259.88,141.59h46.33v2.68a24.5,24.5,0,0,1-49,0v-2.68Z"/><polygon class="cls-3" points="284.51 74.92 306.21 141.59 301.11 143.18 279.41 76.5 284.51 74.92"/><polygon class="cls-3" points="284.01 76.5 262.31 143.18 257.21 141.59 278.91 74.92 284.01 76.5"/><path class="cls-3" d="M342,141.59h46.33v2.68a24.5,24.5,0,0,1-49,0v-2.68Z"/><polygon class="cls-3" points="366.63 74.92 388.33 141.59 383.23 143.18 361.52 76.5 366.63 74.92"/><polygon class="cls-3" points="366.13 76.5 344.43 143.18 339.32 141.59 361.02 74.92 366.13 76.5"/><path class="cls-3" d="M337.61,184.41h-27C310.6,175.22,337.61,175.22,337.61,184.41Z"/><g class="cls-1"><circle class="cls-4" cx="119.88" cy="119.88" r="119.88"/></g><path class="cls-3" d="M158.12,119.32c-4.55,0-8.79-1.4-14.27-4.19l-2-1,1.19-1.94c1.48-2.42,1.06-3.44.48-4.88a16,16,0,0,1-1.41-6.73,17.08,17.08,0,0,1,4.85-11.95,16.85,16.85,0,0,1,11.79-5.11h.1a16.85,16.85,0,0,1,11.79,5.11,17.08,17.08,0,0,1,4.85,11.95,15.85,15.85,0,0,1-1.45,6.78c-.59,1.42-1,2.41.48,4.83l1.25,2.06-2.21,1C167.24,117.95,162.61,119.32,158.12,119.32Z"/><path class="cls-3" d="M150.85,135l-.17-.3c-1.93-3.35-7-5.79-11.67-7.57l.29-.16h0c.6-.32,5.86-2.06,8-2.78l.84-.28,3.51-1.27-.72,3.65c0,.1,0,.17,0,.21s0,.21,0,.4l-.06,1-.84.59a5.61,5.61,0,0,0-2,2.67,7.08,7.08,0,0,1,2.36-.85l1.41-.21.72,1.25a47.36,47.36,0,0,0,4.37,5.52,18.68,18.68,0,0,1,1.24,1.53,31.63,31.63,0,0,0,3.95-3.23,18.09,18.09,0,0,0,3.08-3.82l.72-1.25,1.41.21a7.09,7.09,0,0,1,2.36.85,5.6,5.6,0,0,0-2-2.67l-.84-.59-.06-1c0-.19,0-.35,0-.4s0-.11,0-.21l-.72-3.65,3.51,1.27.84.28c2.17.72,7.42,2.46,8,2.78h0a10.34,10.34,0,0,1,2.2,1.59,16.73,16.73,0,0,1,4.42,7.49,11.92,11.92,0,0,1-.49,8.7,8.11,8.11,0,0,1-1.24,1.76h0a8,8,0,0,1-2.87,2,8.8,8.8,0,0,1-3.29.6H155v-.21l-.29-1.44-.11-.25a19.91,19.91,0,0,1-.78-2.32C153.07,141.9,152.33,137.53,150.85,135Z"/><path class="cls-3" d="M97.11,99l0,.59a4.53,4.53,0,0,1,2.45,2.75h0c0,.13.08.26.12.39a8.76,8.76,0,0,0-.33.83,9.47,9.47,0,0,0-.48,3.78c0,.2,0,.39.06.59A6.07,6.07,0,0,1,96,110.7a21.21,21.21,0,0,1-1.89,3.91,16.78,16.78,0,0,1-3.37,4h0a14.84,14.84,0,0,1-3.23,2.11,11.86,11.86,0,0,1-3.85,1.12h-.47a11.94,11.94,0,0,1-3.87-1.14A15,15,0,0,1,76,118.52a16.72,16.72,0,0,1-3.12-3.57,20.66,20.66,0,0,1-2.1-4.25A6.44,6.44,0,0,1,67.49,107a7.9,7.9,0,0,1-.53-2.29,6.07,6.07,0,0,1,.3-2.42,4.52,4.52,0,0,1,2.44-2.75l0-.57c0-.94-.08-1.84-.08-2.06A13.56,13.56,0,0,1,83.14,83.39h.5A13.56,13.56,0,0,1,97.19,96.94C97.19,97.14,97.15,98,97.11,99Z"/><path class="cls-3" d="M85.47,144.83a18.38,18.38,0,0,0-.69,4.22H60.85a6.53,6.53,0,0,1-6.53-6.53,20.29,20.29,0,0,1,1-4.71c.73-2.5,1.74-5.32,2.31-6.71l0-.11c1.68-3.58,10.54-6.5,14.93-7.95l1.58-.53,1-.37.9.67a12.14,12.14,0,0,0,7.45,2.74,12.73,12.73,0,0,0,7.19-2.75l.9-.65,1,.37,1.64.57c2.36.81,5.51,1.89,8.33,3.19C93.51,129.44,85.86,133.51,85.47,144.83Z"/><path class="cls-3" d="M135.08,100.71l0,.66a5,5,0,0,1,2.72,3.06h0a6.79,6.79,0,0,1,.33,2.7,8.73,8.73,0,0,1-.58,2.54,7.12,7.12,0,0,1-3.7,4.07,23.43,23.43,0,0,1-2.1,4.34,18.63,18.63,0,0,1-3.75,4.39h0a16.46,16.46,0,0,1-3.59,2.35,13.17,13.17,0,0,1-4.27,1.24h-.52a13.26,13.26,0,0,1-4.3-1.27,16.62,16.62,0,0,1-3.63-2.37,18.63,18.63,0,0,1-3.47-4,23,23,0,0,1-2.33-4.72,7.16,7.16,0,0,1-3.7-4.08,8.77,8.77,0,0,1-.58-2.54,6.73,6.73,0,0,1,.33-2.69,5,5,0,0,1,2.71-3.06l0-.63c0-1-.09-2-.09-2.29a15.07,15.07,0,0,1,15.06-15.06h.55a15.07,15.07,0,0,1,15.06,15.06C135.16,98.68,135.12,99.67,135.08,100.71Z"/><path class="cls-3" d="M132,127.52c5.21,1.79,13.84,4.75,16.35,8.51l.17.3a34,34,0,0,1,2,6.42,36.41,36.41,0,0,0,1.6,5.45l.18.91a7.26,7.26,0,0,1-7.26,7.26H94.78a7.26,7.26,0,0,1-7.26-7.26,22.53,22.53,0,0,1,1.06-5.24c.81-2.78,1.94-5.92,2.57-7.46l0-.12c1.87-4,11.72-7.22,16.6-8.83l1.75-.59,1.17-.41,1,.74a13.49,13.49,0,0,0,8.28,3,14.15,14.15,0,0,0,8-3l1-.72,1.16.41Z"/></g></g></svg>