<svg xmlns="http://www.w3.org/2000/svg" viewBox="0 0 291.49 81.31"><defs><style>.cls-1{fill:#1c4577;}.cls-2{fill:#0069ae;}.cls-3,.cls-5,.cls-6{fill:#0068ad;}.cls-4{font-size:30.6px;font-family:Montserrat-Regular, Montserrat;}.cls-4,.cls-9{fill:#1d4577;letter-spacing:0.02em;}.cls-5,.cls-8{letter-spacing:0.03em;}.cls-6{letter-spacing:0.03em;}.cls-7{letter-spacing:-0.02em;}</style></defs><title>Asset 1</title><g id="Layer_2" data-name="Layer 2"><g id="Layer_1-2" data-name="Layer 1"><path class="cls-1" d="M56.5,81.31H2.44A2.44,2.44,0,0,1,0,78.87V2.44A2.44,2.44,0,0,1,2.44,0H78.88a2.44,2.44,0,0,1,2.44,2.44v33H76.44V4.88H4.88V76.44H56.5Z"/><path class="cls-2" d="M78.88,81.31H61.06V76.44H76.44V40h4.88V78.87A2.44,2.44,0,0,1,78.88,81.31Z"/><path class="cls-3" d="M62.22,41.17V59.75a31.63,31.63,0,0,1-19,6.73C28.35,66.48,16.5,55,16.5,40.58s11.92-25.75,27-25.75a29,29,0,0,1,18.87,7L59,26.25A23.54,23.54,0,0,0,43.5,20.32c-11.7,0-21.07,9-21.07,20.26s9.44,20.33,21.14,20.33A24.49,24.49,0,0,0,57,56.6V41.17Z"/><path class="cls-3" d="M43.2,67.09c-15.31,0-27.31-11.64-27.31-26.5S28,14.23,43.5,14.23A29.5,29.5,0,0,1,62.77,21.4l.43.38-4.11,5.36-.49-.44a22.93,22.93,0,0,0-15.1-5.77C32.22,20.93,23,29.75,23,40.58s9.21,19.73,20.53,19.73a23.82,23.82,0,0,0,12.85-4V40.56h6.41V60l-.23.18A32.17,32.17,0,0,1,43.2,67.09Zm.29-51.64c-14.79,0-26.38,11-26.38,25.14S28.57,65.87,43.2,65.87a30.92,30.92,0,0,0,18.41-6.42V41.78h-4V56.92l-.27.18a25.1,25.1,0,0,1-13.8,4.42c-12,0-21.75-9.4-21.75-20.94S31.54,19.71,43.5,19.71a24.19,24.19,0,0,1,15.42,5.65l2.62-3.42A28.32,28.32,0,0,0,43.5,15.44Z"/><text class="cls-4" transform="translate(93.61 32.46)">THE <tspan class="cls-5" x="72.95" y="0">GILL</tspan><tspan class="cls-6"><tspan x="0" y="36.72">L</tspan><tspan class="cls-7" x="17.29" y="36.72">A</tspan><tspan class="cls-8" x="39.14" y="36.72">W </tspan><tspan class="cls-9" x="80.26" y="36.72">GROUP</tspan></tspan></text></g></g></svg>