<svg xmlns="http://www.w3.org/2000/svg" viewBox="0 0 239.76 239.76"><defs><style>.cls-1{fill:#0068ad;}.cls-2{fill:#fff;fill-rule:evenodd;}</style></defs><title>Asset 5</title><g id="Layer_2" data-name="Layer 2"><g id="content"><circle class="cls-1" cx="119.88" cy="119.88" r="119.88"/><path class="cls-2" d="M161.11,145.19l-.2,1.31c-2.29,15.38-13.73,14.71-24.46,13l21.13,22a1,1,0,0,0,1.76-.56l2.8-14.82L177,163.38a1.07,1.07,0,0,0,.55-1.79Z"/><path class="cls-2" d="M148.71,152.52a4,4,0,0,0,4.65-3.36c2.41-16.18.59-14.26,15.93-21.93a4,4,0,0,0,1.76-5.46c-7.83-15.15-7.83-11.94,0-27.1a4,4,0,0,0,.26-3.11,4.06,4.06,0,0,0-2-2.34c-15.27-7.63-13.42-5.05-15.93-21.94a4,4,0,0,0-1.61-2.64,4.08,4.08,0,0,0-3-.73c-16.84,2.78-13.78,3.75-25.78-8.38a3.76,3.76,0,0,0-2.64-1.18,3.84,3.84,0,0,0-2.67,1.18c-12,12.13-8.95,11.16-25.79,8.38a4.09,4.09,0,0,0-3,.73,4,4,0,0,0-1.61,2.64c-2.5,16.89-.66,14.3-15.93,21.94a4,4,0,0,0-1.76,5.45c7.86,15.23,7.5,12.58,0,27.1a4,4,0,0,0-.25,3.11,4,4,0,0,0,2,2.34c15.26,7.63,13.41,5.06,16,21.93a4,4,0,0,0,4.63,3.37c16.83-2.77,13.81-3.76,25.79,8.39a3.58,3.58,0,0,0,5.31,0c12-12.15,9-11.16,25.78-8.39ZM120.26,76.44a31.78,31.78,0,1,1-31.59,31.78A31.76,31.76,0,0,1,120.26,76.44Z"/><path class="cls-2" d="M77,144.94l.2,1.31c2.29,15.37,13.73,14.71,24.46,13l-21.13,22a1,1,0,0,1-1.76-.56L76,165.9l-14.83-2.77a1.07,1.07,0,0,1-.55-1.79Z"/></g></g></svg>